<?xml version="1.0" standalone="no"?>
<svg viewBox="0 0 200 200" xmlns="http://www.w3.org/2000/svg">
  <path fill="#667EEA" d="M29,-52.6C35.2,-46.7,36.2,-34.1,40.2,-24.2C44.2,-14.3,51.2,-7.2,50.5,-0.4C49.9,6.4,41.6,12.8,40.2,27.2C38.8,41.5,44.2,63.8,38.7,68.9C33.1,74.1,16.6,62.2,2.5,57.9C-11.5,53.6,-23.1,56.8,-34.9,55.2C-46.7,53.6,-58.7,47.2,-67.8,37.2C-77,27.2,-83.2,13.6,-83.8,-0.4C-84.5,-14.4,-79.6,-28.7,-68.4,-35.2C-57.2,-41.7,-39.8,-40.2,-27.4,-42.5C-14.9,-44.9,-7.5,-51,2,-54.4C11.4,-57.8,22.8,-58.5,29,-52.6Z" transform="translate(100 100)" />
</svg>
